<svg id="Layer_1" data-name="Layer 1" xmlns="http://www.w3.org/2000/svg" viewBox="0 0 197.11 187.91"><path d="M82.56,79.19c-.74,0-1.33,0-1.92,0a3,3,0,0,1-2.8-3.05,2.78,2.78,0,0,1,2.76-2.88c1.92-.09,3.85-.07,5.77,0a2.67,2.67,0,0,1,2.7,2.31c1.11,5.67-3.59,12-9.32,12.53A11.92,11.92,0,0,1,66.5,76.46a11.31,11.31,0,0,1,6.15-10.72,11.5,11.5,0,0,1,12.1.29,3,3,0,0,1,1.63,3.21,2.69,2.69,0,0,1-2.46,2.41,6.13,6.13,0,0,1-2.76-.78,6,6,0,1,0-5.4,10.65A4.69,4.69,0,0,0,82.56,79.19Z"/><path d="M98.62,77.39c0,2.46,0,4.92,0,7.38,0,2.07-1.12,3.33-2.92,3.35s-3-1.27-3-3.43c0-5.63,0-11.27,0-16.9,0-1.84.69-3,2-3.38s2.66.06,3.75,1.64c1.83,2.63,3.65,5.28,5.48,7.92.3.43.62.85,1.15,1.56,0-3,0-5.62,0-8.25a2.94,2.94,0,0,1,3.23-3,3,3,0,0,1,2.71,3c.09,5.69.16,11.37.18,17.05A3.34,3.34,0,0,1,109,87.78c-1.51.46-2.82-.06-3.92-1.64-2.06-2.94-4.1-5.91-6.15-8.86Z"/><path d="M123,73.11c0-2.13,0-4.26,0-6.38a3.07,3.07,0,0,1,3-3.17,3,3,0,0,1,2.91,3.12c0,3.8,0,7.61,0,11.42a3.16,3.16,0,0,0,3.2,3.45,3.2,3.2,0,0,0,3.31-3.5c0-3.71,0-7.42,0-11.13a3.08,3.08,0,0,1,3-3.36c1.72,0,3,1.38,3,3.37,0,3.8-.06,7.61,0,11.42a8.25,8.25,0,0,1-4.92,8.09,9.07,9.07,0,0,1-9.69-.6A8,8,0,0,1,123,78.59C123,76.77,123,74.94,123,73.11Z"/><path d="M41.31,71.44c.6.28,1.19.6,1.8.85,1.37.57,2.78,1,4.12,1.66,3.4,1.6,5.2,4.56,4.73,7.62a8,8,0,0,1-7,6.48,11.11,11.11,0,0,1-9.48-3.22,3,3,0,0,1-.31-4.35c1.18-1.27,2.85-1.31,4.36,0s3,2.08,5,1.49c.54-.17,1-.76,1.42-1.16-.4-.45-.71-1.08-1.2-1.32-1.6-.76-3.28-1.36-4.91-2-3.25-1.36-4.78-3.82-4.41-7.06a7.27,7.27,0,0,1,6-6,11,11,0,0,1,8.65,2.16A2.94,2.94,0,0,1,51,70.71c-1,1.49-2.52,1.69-4.3.81A14.68,14.68,0,0,0,43,70.33c-.51-.09-1.14.42-1.71.66Z"/><path d="M151.7,79.22c0,1.57,0,3,0,4.41,0,2.05-1.18,3.34-2.95,3.39a2.94,2.94,0,0,1-3.08-3.23q-.09-8.69,0-17.35c0-2.2,1.17-3.25,3.34-3.28,1.68,0,3.37,0,5,0a8,8,0,0,1-.16,16Zm0-10v4c2.72.27,4.07-.42,4.1-2S154.6,69,151.71,69.18Z"/><path d="M55.92,76.1c0-2.77,0-5.54,0-8.3,0-2.2,1.26-3.63,3.08-3.6s3,1.38,3,3.54c0,5.63,0,11.26,0,16.89,0,2.17-1.19,3.48-3,3.49s-3.05-1.36-3.07-3.58C55.9,81.73,55.92,78.91,55.92,76.1Z"/><path d="M182.57,87.55V59.81a16.74,16.74,0,0,0-5.1-12.56c-7.11-6.83-19.21-6.63-20.38-6.59h-46a3.21,3.21,0,0,0,0,6.42h46.15c.11,0,10.44-.32,15.77,4.82a10.38,10.38,0,0,1,3.1,7.91V87.67a2.64,2.64,0,0,0,0,.29c0,.07.57,7.33-4,12.27-3,3.24-7.63,4.89-13.81,4.89H125.14c-.82-.36-45-6-45-6a3.39,3.39,0,0,0-4,4c0,.13.15.89.36,2.08H39c-.09,0-9,.59-14.16-4.25-2.62-2.43-3.89-5.81-3.89-10.31V61.69c0-1.5.52-14.61,17-14.61H80.81a3.21,3.21,0,0,0,0-6.42H38c-7.37,0-13.22,2.12-17.37,6.31A22.4,22.4,0,0,0,14.5,61.69V90.57c0,6.32,2,11.38,6,15,5.81,5.37,14.1,6,17.48,6,.66,0,1.13,0,1.36,0H77.55c1.88,10.75,5,28.28,5.55,31.77.33,1.93,1.29,3.12,2.82,3.41s2.8-.47,3.78-2.23c1.33-2.38,2.64-4.77,4-7.15.62-1.12,1.26-2.22,2-3.45l11.61,11.66c2.33,2.34,4,2.29,6.31-.13,2.54-2.63,5-5.3,7.73-7.78,3.87-3.57,4.25-4.82,1.17-7.9L111.11,118.4s7.19-3.21,15-6.86h32.28c8.09,0,14.35-2.37,18.6-7C183,97.88,182.66,89,182.57,87.55ZM103.9,120.09c4.55,4.58,9.12,9.13,13.57,13.58l-6.69,6.67c-2.8-2.86-5.79-5.92-8.79-9q-2.22-2.26-4.48-4.49c-2.47-2.42-4.89-2.09-6.57.89a58.65,58.65,0,0,0-3.51,9.46c-1.38-7.9-2.81-17.28-4.2-25.7h27.34a55.26,55.26,0,0,0-5.79,2.32C102.12,115.35,101.75,117.92,103.9,120.09Z"/><circle cx="96.52" cy="43.86" r="3.21"/></svg>