<svg id="Layer_1" data-name="Layer 1" xmlns="http://www.w3.org/2000/svg" viewBox="0 0 197.11 187.91"><path d="M61.86,159c1.29,4.17,2.55,8.25,3.8,12.33.84,2.79,0,4-2.95,4H32.59c-2.47,0-3.15-.7-3.45-3.18-1.24-10.36-2.53-20.71-3.78-31.06q-1.51-12.57-3-25.14c-.26-2.29.68-3.33,2.93-3.33,6.7,0,13.39,0,20.08,0a2.84,2.84,0,0,1,3.07,2.3c.7,2.35,1.42,4.7,2.15,7.14a15.43,15.43,0,0,0,6.48-4.13,31.78,31.78,0,0,1,9.23-6.34,30.93,30.93,0,0,1,27,.59,24.67,24.67,0,0,0,11.7,2.6c3.58-.1,7.33.61,10.69-.25s6.36-3.17,9.48-4.9c5.42-3,10.71-2.93,16,.42a2,2,0,0,0,1.69.08c4.65-2.4,8.86-1.5,12.72,1.69a2,2,0,0,0,2.43.35,12.93,12.93,0,0,1,16,4.57c1.23,1.84,1,3.07-.79,4.32-14.88,10.23-29.69,20.58-44.71,30.62a26.24,26.24,0,0,1-17.53,4c-7-.75-14-2.21-21-3.41-3.46-.59-6.9-1.3-10.36-1.93a8,8,0,0,0-6,1.23C69.75,154.08,65.81,156.52,61.86,159Zm106.67-40.85c-2.75-2.46-6.05-2.81-9.51-1q-11,5.9-22,11.88a2.65,2.65,0,0,0-1.14,1.5,2.42,2.42,0,0,1-2.58,2.12c-1.82,0-3.64-.15-5.46-.18-6.15-.09-12.31-.18-18.46-.21-1.46,0-2.92.32-4.38.35a2.46,2.46,0,0,1-.46-4.89,10.64,10.64,0,0,1,2.09-.3q8.7-.09,17.4-.11h6.3c-.9-4.39-5.16-7.64-10.24-7.67-5.87,0-11.74,0-17.61,0a10.07,10.07,0,0,1-3-.24c-3.27-1.05-6.54-2.13-9.73-3.4-9.34-3.71-18.19-2.85-26.33,3-3.72,2.69-6.67,6.44-11.41,7.86,2.78,9.13,5.5,18,8.27,27.12,3.85-2.43,7.45-4.73,11.08-7A11.78,11.78,0,0,1,80,145.33c9.56,1.75,19.09,3.67,28.69,5.13a25.23,25.23,0,0,0,18.64-4q12.39-8.52,24.81-17Zm-140.95-.61c2.17,17.75,4.31,35.27,6.45,52.81H60.1c-.83-2.76-1.63-5.44-2.45-8.11Q51.1,140.69,44.5,119.13c-.22-.72-.2-1.61-1.45-1.59C38,117.6,33,117.56,27.58,117.56Zm124.33-2.23c-1.95-1.41-3.89-2.08-5.82-1.12-4.39,2.17-8.66,4.58-13,6.91.67,1.18,1.27,2.23,1.9,3.36Zm-26.53,0c1.17.62,2.28,1.25,3.43,1.79a1.45,1.45,0,0,0,1.12,0c2.21-1.16,4.4-2.37,6.91-3.72C132.37,111.57,128.85,113,125.38,115.36Z"/><path d="M39.31,162.93a6.58,6.58,0,0,1,6.64-6.7A6.66,6.66,0,0,1,52.71,163a6.7,6.7,0,1,1-13.4-.08ZM46,165.31c.83-1.1,1.69-1.75,1.64-2.33a2.44,2.44,0,0,0-1.53-1.66,1.38,1.38,0,0,0-1.73,1.6C44.42,163.6,45.17,164.19,46,165.31Z"/><path d="M132.6,30.36a22.84,22.84,0,0,1-1.29,2.12c-1.15,1.48-3,2.8-3.33,4.41s1.35,3.23,1.82,5c.59,2.2,1.49,3.64,4.11,3.34a13.38,13.38,0,0,1,3.49.31,2.52,2.52,0,0,1,2.35,2.78c0,3.64,0,7.28,0,10.92,0,1.69-.83,2.51-2.57,2.7s-3.39.28-5.06.58a2.35,2.35,0,0,0-1.46,1.14q-1.37,2.85-2.45,5.81a2.19,2.19,0,0,0,.25,1.78c1,1.38,2.15,2.64,3.21,4a2.64,2.64,0,0,1-.16,3.92q-3.7,3.76-7.48,7.46c-1.42,1.39-2.47,1.42-4,.18s-2.88-3.19-4.53-3.46-3.45,1.42-5.29,1.83c-2.26.51-3.16,1.69-3.1,3.94a21.74,21.74,0,0,1-.39,3.84A2.34,2.34,0,0,1,104.12,95H93a2.42,2.42,0,0,1-2.63-2.47c-.19-1.8-.33-3.62-.65-5.4a2.32,2.32,0,0,0-1.18-1.38c-1.78-.86-3.68-1.49-5.45-2.39a1.78,1.78,0,0,0-2.33.32c-1.22,1.1-2.52,2.11-3.79,3.16a2.52,2.52,0,0,1-3.76-.18c-2.54-2.52-5.09-5-7.59-7.61-1.31-1.34-1.33-2.4-.15-3.89,1-1.29,2-2.57,3.15-3.79a1.66,1.66,0,0,0,.26-2.17c-.88-1.78-1.53-3.68-2.41-5.46A2.53,2.53,0,0,0,65,62.48c-1.67-.33-3.38-.41-5.07-.59s-2.61-1-2.62-2.83q0-5.28,0-10.56c0-2,.74-2.86,2.81-3.08,1.63-.18,3.28-.21,4.89-.47a2.27,2.27,0,0,0,1.45-1.1A55.8,55.8,0,0,0,68.9,38a2.45,2.45,0,0,0-.27-1.94c-1-1.4-2.13-2.65-3.2-4a2.51,2.51,0,0,1,.18-3.76c2.53-2.53,5-5.08,7.6-7.59,1.27-1.24,2.48-1.27,3.9-.14s2.58,2.23,4,3.21a2.2,2.2,0,0,0,1.77.23q3-1.06,5.82-2.42a2.3,2.3,0,0,0,1.1-1.45c.31-1.73.45-3.49.63-5.24a2.37,2.37,0,0,1,2.66-2.4h11.09a2.28,2.28,0,0,1,2.56,2.12c.25,1.8.49,3.61.56,5.42a1.52,1.52,0,0,0,1.23,1.58,27.14,27.14,0,0,1,4.85,2,2.51,2.51,0,0,0,3.62-.46,30.17,30.17,0,0,1,3.23-2.72,2.5,2.5,0,0,1,3.63.18c2.58,2.58,5.15,5.16,7.67,7.78A10.26,10.26,0,0,1,132.6,30.36Zm-5.91,46.71c-1.4-1.71-2.53-3.14-3.71-4.51s-1-2.39-.25-3.84c1.36-2.84,2.53-5.77,3.63-8.71a3,3,0,0,1,2.87-2.36c1.85-.11,3.68-.38,5.49-.58V50.31l-5.66-.56a3.1,3.1,0,0,1-2.8-2.45,87,87,0,0,0-3.68-8.69,3.11,3.11,0,0,1,.35-3.85c1.19-1.36,2.31-2.79,3.49-4.22l-4.79-4.69c-1.3,1.07-2.68,2.15-4,3.31s-2.54,1.17-4.14.36A53.35,53.35,0,0,0,105.29,26c-1.89-.59-2.74-1.55-2.86-3.42-.1-1.68-.3-3.35-.45-5H95.17c-.19,1.8-.44,3.48-.51,5.17s-.89,2.56-2.49,3.14c-3,1.08-5.86,2.29-8.69,3.65-1.4.66-2.5.78-3.7-.24C78.36,28.14,76.9,27,75.68,26l-5,4.66c1.12,1.36,2.2,2.74,3.36,4.05s1.1,2.48.35,4a75.88,75.88,0,0,0-3.6,8.53,3.19,3.19,0,0,1-2.92,2.55l-5.6.54v6.75c1.91.21,3.76.46,5.62.59A3,3,0,0,1,70.75,60a77.06,77.06,0,0,0,3.59,8.54c.84,1.67.83,2.93-.39,4.3s-2.22,2.67-3.27,4l4.75,4.82c1.4-1.16,2.83-2.27,4.18-3.46a3.13,3.13,0,0,1,3.86-.38,91.75,91.75,0,0,0,8.67,3.7,3.18,3.18,0,0,1,2.51,3.12c.11,1.8.35,3.59.53,5.35H102c.16-1.8.34-3.49.45-5.18a3.46,3.46,0,0,1,2.72-3.38,75.8,75.8,0,0,0,8.52-3.61c1.39-.67,2.5-.77,3.7.26,1.41,1.22,2.88,2.37,4.38,3.6.32-.29.58-.51.83-.75Z"/><path d="M98.62,29.08c13.77-.12,24.92,11.53,24.61,25.32a24.67,24.67,0,0,1-49.34-.8A24.65,24.65,0,0,1,98.62,29.08ZM78.94,53.63a19.65,19.65,0,0,0,39.3.48c.27-10.53-8.41-19.79-18.8-20A19.67,19.67,0,0,0,78.94,53.63Z"/><path d="M95.59,56.23c-1.42-1.58-2.73-3.16-4.16-4.62-1.28-1.3-2.86-1.35-3.88-.3s-.91,2.57.4,3.87c1.91,1.91,3.85,3.78,5.79,5.65,1.6,1.54,2.75,1.53,4.39-.06q5.43-5.27,10.83-10.56c1.43-1.41,1.61-2.88.55-4s-2.49-1.09-4.1.47C102.25,49.75,99.1,52.81,95.59,56.23Z"/></svg>