<svg id="Layer_1" data-name="Layer 1" xmlns="http://www.w3.org/2000/svg" viewBox="0 0 197.11 187.91"><defs><style>.cls-1{fill:#1d1d1b;}</style></defs><path class="cls-1" d="M153.53,20.34h-110A18.66,18.66,0,0,0,24.94,39v110a18.65,18.65,0,0,0,18.63,18.63h110a18.66,18.66,0,0,0,18.64-18.63V39A18.66,18.66,0,0,0,153.53,20.34ZM43.57,27h110a12,12,0,0,1,12,12V54.3H31.59V39A12,12,0,0,1,43.57,27Zm110,133.93h-110a12,12,0,0,1-12-12V61H165.52v88A12,12,0,0,1,153.53,160.92Z"/><polygon class="cls-1" points="88.51 122.91 71.13 106.29 66.54 111.1 88.22 131.84 130.41 96.51 126.14 91.41 88.51 122.91"/></svg>