<svg id="Layer_1" data-name="Layer 1" xmlns="http://www.w3.org/2000/svg" viewBox="0 0 197.11 187.91"><path d="M16.68,72.51V51.4A3.84,3.84,0,0,1,21,49.18c2.5.45,3.53-.79,4.76-2.87a25.67,25.67,0,0,0,3.72-16.1A18.52,18.52,0,0,1,29.66,25c.92-4.8,4.8-7.77,9.89-7.77H157.39c6.26,0,10.23,4,10.24,10.31a37.91,37.91,0,0,1,0,4c-.55,5,.82,9.43,3.17,13.84,1.49,2.79,2.85,4.44,6.26,3.92,2-.32,3.36,1.23,3.37,3.34q0,9.36,0,18.71c0,2.2-1.29,3.41-3.51,3.46-.93,0-1.87,0-2.8,0v89.57H176c2.92,0,4.39,1.09,4.37,3.23s-1.47,3.16-4.28,3.16q-77.55,0-155.1,0c-2,0-3.42-.5-4.35-2.27v-1.92c1.31-2.87,4.05-2.11,6.31-2.27V74.78C20.61,74.68,18,75.32,16.68,72.51ZM82.56,164.2H167.5V74.84H29.58v89.35h6.29V91.78c0-3.18,1-4.23,4.17-4.23H78.1c3.51,0,4.46.94,4.46,4.43V164.2ZM35.88,36.37H85.32c2.21,0,3.61,1.26,3.62,3.17s-1.39,3.19-3.58,3.22c-1.28,0-2.56,0-3.83,0q-22.71,0-45.41,0c-.54,0-1.36.06-1.55.39-1.07,1.87-2,3.83-3,5.9h134c-.87-1.77-1.71-3.35-2.43-5a2,2,0,0,0-2.16-1.35c-16.1.05-32.19,0-48.29,0a12.75,12.75,0,0,1-1.75,0,3,3,0,0,1-2.66-2.43,2.82,2.82,0,0,1,1.47-3.39,6,6,0,0,1,2.59-.51q23.51,0,47,0h1.79a3.23,3.23,0,0,0,.12-.54c0-2.5,0-5,0-7.51,0-3.71-1-4.75-4.74-4.75H40.57c-.43,0-.86,0-1.28,0-2.06.18-3.31,1.3-3.38,3.34C35.8,30,35.88,33.09,35.88,36.37ZM174,55.67H23.21v12.6H174ZM42.38,94V125.8h33.7V94Zm33.71,38.43H42.39v31.79h33.7Z"/><path d="M125,157.91H93.21c-3.2,0-4.25-1-4.25-4.15v-62c0-3.14,1.05-4.17,4.24-4.17H157c3.25,0,4.25,1,4.25,4.32v61.71c0,3.36-1,4.33-4.4,4.33Zm29.7-6.46V94.07H95.44v57.38Z"/><path d="M101.74,39.57a3.19,3.19,0,1,1-3.11-3.19A3.19,3.19,0,0,1,101.74,39.57Z"/><path d="M120.92,119.34c-3.63-4.49-7.19-8.87-10.73-13.27-1.51-1.89-1.42-3.85.18-5.07s3.35-.82,4.85,1q4.55,5.58,9.06,11.17c.23.28.48.55.84,1l7.07-8.71c.94-1.16,1.86-2.33,2.81-3.47,1.5-1.8,3.36-2.15,4.88-.93s1.62,3.15.17,5c-3.56,4.44-7.16,8.86-10.78,13.34,1.73,2.15,3.4,4.29,5.16,6.34a1.83,1.83,0,0,0,1.49.41,9.61,9.61,0,1,1-7.57,8.16,6,6,0,0,1,.71-2.43c.81-1.25.41-2.08-.48-3-1.18-1.3-2.22-2.71-3.48-4.26-1.52,1.87-3,3.63-4.4,5.49-.19.26.1,1,.3,1.43a9.6,9.6,0,0,1-4.68,12.8,9.5,9.5,0,0,1-12.61-4.46,9.09,9.09,0,0,1,1-10.07c2.37-3.1,5.61-4.2,9.48-3.64a2.23,2.23,0,0,0,1.7-.56C117.61,123.53,119.21,121.47,120.92,119.34Zm-8.55,13a3.15,3.15,0,1,0,3.08,3.27A3.31,3.31,0,0,0,112.37,132.37ZM141,135.52a3.16,3.16,0,1,0-3.19,3.16A3.31,3.31,0,0,0,141,135.52Z"/></svg>